<?xml version="1.0" encoding="UTF-8" standalone="no"?>
<svg
   xmlns:dc="http://purl.org/dc/elements/1.1/"
   xmlns:cc="http://creativecommons.org/ns#"
   xmlns:rdf="http://www.w3.org/1999/02/22-rdf-syntax-ns#"
   xmlns:svg="http://www.w3.org/2000/svg"
   xmlns="http://www.w3.org/2000/svg"
   id="svg16"
   xml:space="preserve"
   viewBox="0 0 649 107"
   height="107"
   width="649"
   version="1.1"><metadata
     id="metadata20"><rdf:RDF><cc:Work
         rdf:about=""><dc:format>image/svg+xml</dc:format><dc:type
           rdf:resource="http://purl.org/dc/dcmitype/StillImage" /></cc:Work></rdf:RDF></metadata><desc
     id="desc2">Created with Fabric.js 2.4.6</desc><defs
     id="defs4" /><g
     id="g8"
     transform="matrix(1.69,0,0,1.69,83.46,54.93)"><path
       id="path6"
       d="M 92.559,45.057 C 88.48,40.977 83.116,38.924 77.771,38.926 74.321,38.924 70.866,39.78 67.75,41.479 67.637,30.016 58.317,20.762 46.828,20.76 36.178,20.762 27.396,28.719 26.08,39.012 25.459,38.956 24.836,38.926 24.213,38.926 v 10e-4 c -5.348,-10e-4 -10.715,2.048 -14.796,6.13 -4.082,4.076 -6.133,9.441 -6.131,14.79 -0.002,5.353 2.043,10.723 6.13,14.807 4.082,4.082 9.448,6.131 14.797,6.128 H 77.769 C 83.541,80.783 88.78,78.437 92.56,74.656 96.647,70.568 98.691,65.2 98.691,59.849 98.689,54.499 96.64,49.138 92.559,45.057 Z m -2.573,27.022 c -3.135,3.13 -7.444,5.063 -12.225,5.063 h -53.55 c -4.428,0 -8.844,-1.683 -12.224,-5.064 -3.38,-3.38 -5.061,-7.797 -5.062,-12.231 0.002,-4.427 1.686,-8.838 5.063,-12.216 3.381,-3.381 7.795,-5.063 12.225,-5.064 4.43,10e-4 8.844,1.684 12.224,5.064 l 2.573,-2.575 c -2.682,-2.684 -5.921,-4.481 -9.343,-5.402 1.02,-8.586 8.304,-15.237 17.159,-15.254 9.549,0.017 17.271,7.741 17.289,17.288 0,0.836 -0.061,1.656 -0.175,2.458 -0.332,0.292 -0.659,0.594 -0.977,0.911 l 2.572,2.572 c 3.384,-3.38 7.798,-5.062 12.233,-5.062 4.427,10e-4 8.835,1.687 12.215,5.064 3.378,3.381 5.061,7.79 5.065,12.218 -0.002,4.432 -1.681,8.849 -5.062,12.23 z"
       transform="translate(-50.99,-50.77)"
       style="opacity:1;fill-rule:nonzero;stroke:none;stroke-width:1;stroke-linecap:butt;stroke-linejoin:miter;stroke-miterlimit:4;stroke-dasharray:none;stroke-dashoffset:0" /></g><g
     id="g14"
     transform="translate(422.98,54.93)"><g
       id="text12"
       style="font-style:normal;font-weight:normal;font-size:125px;font-family:Raleway;white-space:pre;opacity:1;fill-rule:nonzero;stroke:none;stroke-width:1;stroke-linecap:butt;stroke-linejoin:miter;stroke-miterlimit:4;stroke-dasharray:none;stroke-dashoffset:0"
       aria-label="Presenti"><path
         id="path22"
         style=""
         d="m -222.565,39.27 v -88.75 h 36.75 q 5.75,0 10.5,2.5 4.875,2.375 8.375,6.375 3.5,3.875 5.5,8.875 2,5 2,10.125 0,5.5 -1.875,10.625 -1.875,5.0000005 -5.25,8.8750005 -3.375,3.875 -8.125,6.25 -4.625,2.375 -10.375,2.375 h -28.75 V 39.27 Z m 8.75,-40.4999995 h 28.375 q 3.875,0 7,-1.625 3.25,-1.75 5.5,-4.5 2.25,-2.8750005 3.5,-6.5000005 1.25,-3.75 1.25,-7.75 0,-4.125 -1.5,-7.75 -1.375,-3.75 -3.875,-6.5 -2.375,-2.75 -5.75,-4.25 -3.25,-1.625 -6.875,-1.625 h -27.625 z" /><path
         id="path24"
         style=""
         d="m -114.17828,-18.355 q -8.625,0.25 -15,4.75 -6.375,4.5000005 -9,12.3750005 V 39.27 h -8.5 v -65.125 h 8 v 15.625 q 3.625,-7.5 9.75,-11.75 6.125,-4.25 13.125,-4.25 1,0 1.625,0.125 z" /><path
         id="path26"
         style=""
         d="m -77.781799,40.52 q -7.125,0 -13.125,-2.625 -5.875,-2.75 -10.250001,-7.375 -4.375,-4.75 -6.875,-10.875 -2.375,-6.125 -2.375,-13.1249995 0,-6.87500004 2.375,-12.875 2.5,-6.1250005 6.75,-10.6250005 4.375001,-4.625 10.375001,-7.25 6,-2.75 13,-2.75 7.125,0 13,2.75 6,2.625 10.25,7.25 4.25,4.625 6.625,10.6250005 2.375,5.99999996 2.375,12.75 0,1 0,2 0,1 -0.125,1.375 H -101.5318 q 0.375,5.2499995 2.375001,9.7499995 2.125,4.375 5.375,7.625 3.25,3.25 7.375,5.125 4.25,1.75 9,1.75 3.125,0 6.25,-0.875 3.125,-0.875 5.75,-2.375 2.625,-1.5 4.75,-3.625 2.125,-2.25 3.25,-4.875 l 7.375,2 q -1.5,3.625 -4.25,6.625 -2.75,2.875 -6.375,5.125 -3.625,2.125 -8,3.25 -4.375,1.25 -9.125,1.25 z m 24,-37.2499995 q -0.375,-5.25 -2.5,-9.5 -2,-4.3750005 -5.25,-7.5000005 -3.125,-3.125 -7.375,-4.875 -4.125,-1.75 -8.875,-1.75 -4.75,0 -9,1.75 -4.25,1.75 -7.5,4.875 -3.125,3.125 -5.125,7.5000005 -1.875001,4.375 -2.250001,9.5 z" /><path
         id="path28"
         style=""
         d="m -10.795471,40.52 q -7.625,0 -14.875,-2.5 -7.25,-2.5 -12.5,-7.25 l 3.875,-5.75 q 5.5,4.5 11.125,6.75 5.75,2.25 12.25,2.25 7.8749998,0 12.4999998,-3.125 4.75,-3.25 4.75,-9.125 0,-2.75 -1.25,-4.5 -1.25,-1.875 -3.75,-3.25 -2.375,-1.375 -6.125,-2.375 -3.625,-1.125 -8.4999998,-2.2499995 -5.625,-1.375 -9.75,-2.75 -4.125,-1.375 -6.875,-3.125 -2.625,-1.75 -4,-4.25000004 -1.25,-2.62499996 -1.25,-6.49999996 0,-4.8750005 1.875,-8.6250005 2,-3.75 5.25,-6.125 3.375,-2.5 7.75,-3.75 4.5,-1.25 9.5,-1.25 7.4999998,0 13.6249998,2.5 6.125,2.375 9.8750002,6.375 l -4.1250002,5 q -3.625,-3.75 -8.87499999,-5.625 -5.12500001,-1.875 -10.74999981,-1.875 -3.375,0 -6.25,0.75 -2.875,0.625 -5.125,2.125 -2.125,1.5 -3.375,3.875 -1.25,2.25 -1.25,5.3750005 0,2.625 0.875,4.25 0.875,1.625 2.875,2.875 2,1.12499996 5,2.12499996 3.125,0.87500004 7.5,1.87500004 6.2499998,1.5 10.99999981,3 4.74999999,1.5 7.87499999,3.5 Q 11.329529,11.145 12.954529,14.02 q 1.625,2.875 1.625,7 0,9 -6.8750002,14.25 -6.87499999,5.25 -18.4999998,5.25 z" /><path
         id="path30"
         style=""
         d="m 56.495544,40.52 q -7.125,0 -13.125,-2.625 -5.875,-2.75 -10.25,-7.375 -4.375,-4.75 -6.875,-10.875 -2.375,-6.125 -2.375,-13.1249995 0,-6.87500004 2.375,-12.875 2.5,-6.1250005 6.75,-10.6250005 4.375,-4.625 10.375,-7.25 6,-2.75 13,-2.75 7.125,0 13,2.75 6,2.625 10.25,7.25 4.25,4.625 6.625,10.6250005 2.375,5.99999996 2.375,12.75 0,1 0,2 0,1 -0.125,1.375 h -55.75 q 0.375,5.2499995 2.375,9.7499995 2.125,4.375 5.375,7.625 3.25,3.25 7.375,5.125 4.25,1.75 9,1.75 3.125,0 6.25,-0.875 3.125,-0.875 5.75,-2.375 2.625,-1.5 4.75,-3.625 2.125,-2.25 3.25,-4.875 l 7.375,2 q -1.5,3.625 -4.25,6.625 -2.75,2.875 -6.375,5.125 -3.625,2.125 -8,3.25 -4.375,1.25 -9.125,1.25 z m 24,-37.2499995 q -0.375,-5.25 -2.5,-9.5 -2,-4.3750005 -5.25,-7.5000005 -3.125,-3.125 -7.375,-4.875 -4.125,-1.75 -8.875,-1.75 -4.75,0 -9,1.75 -4.25,1.75 -7.5,4.875 -3.125,3.125 -5.125,7.5000005 -1.875,4.375 -2.25,9.5 z" /><path
         id="path32"
         style=""
         d="m 156.60687,39.27 h -8.5 V 2.8950005 q 0,-11.625 -3.5,-16.8750005 -3.375,-5.25 -10.5,-5.25 -3.75,0 -7.5,1.375 -3.75,1.375 -7,3.875 -3.125,2.5 -5.625,6.0000005 -2.5,3.375 -3.625,7.37499996 V 39.27 h -8.5 v -65.125 h 7.75 v 14.75 q 4,-7.125 11.375,-11.5 7.5,-4.375 16.25,-4.375 5.375,0 9.125,2 3.75,2 6,5.625 2.25,3.625 3.25,8.875 1,5.2500005 1,11.6250005 z" /><path
         id="path34"
         style=""
         d="m 205.3725,36.145 q -0.75,0.375 -2.25,1 -1.375,0.625 -3.25,1.25 -1.875,0.625 -4.25,1.125 -2.375,0.5 -5,0.5 -2.75,0 -5.25,-0.75 -2.5,-0.75 -4.375,-2.25 -1.875,-1.625 -3,-4 -1.125,-2.375 -1.125,-5.5 v -46.625 h -9 v -6.75 h 9 v -22 h 8.5 v 22 h 15 v 6.75 h -15 v 44.25 q 0.25,3.625 2.5,5.375 2.375,1.625 5.375,1.625 3.625,0 6.375,-1.125 2.75,-1.25 3.5,-1.75 z" /><path
         id="path36"
         style=""
         d="m 216.11469,39.27 v -65.125 h 8.5 V 39.27 Z m 0,-78.75 v -12.5 h 8.5 v 12.5 z" /></g></g></svg>